<svg width="60" height="40" viewBox="0 0 60 40" fill="none" xmlns="http://www.w3.org/2000/svg">
<path d="M24.6845 18.08C25.9296 17.412 26.8709 16.668 27.516 15.864C28.6636 14.416 29.2299 12.496 29.2299 10.116C29.2299 7.8 28.6636 5.82 27.531 4.16C25.6408 1.456 22.4418 0.072 17.919 0H0V39.012H16.7076C18.5903 39.012 20.3341 38.84 21.9468 38.488C23.5594 38.132 24.9545 37.48 26.1359 36.528C27.186 35.7 28.0635 34.672 28.7611 33.46C29.8637 31.628 30.415 29.552 30.415 27.24C30.415 25 29.9312 23.092 28.9711 21.524C27.9998 19.956 26.5747 18.808 24.6845 18.08ZM7.39185 6.776H15.4625C17.2364 6.776 18.699 6.98 19.8466 7.384C21.1742 7.972 21.838 9.168 21.838 10.992C21.838 12.628 21.3317 13.772 20.3304 14.416C19.3216 15.06 18.0127 15.384 16.4076 15.384H7.39185V6.776ZM20.1541 31.556C19.2616 32.016 18.0052 32.244 16.3963 32.244H7.39185V21.84H16.5201C18.1102 21.852 19.3478 22.076 20.2329 22.496C21.808 23.256 22.5918 24.648 22.5918 26.684C22.5918 29.084 21.7818 30.7 20.1541 31.556Z" fill="white"/>
<path d="M54.2331 1.82031H38.3431V6.67631H54.2331V1.82031Z" fill="white"/>
<path d="M59.7536 20.9844C59.4236 18.7244 58.696 16.7364 57.5634 15.0204C56.3221 13.0764 54.7469 11.6524 52.8305 10.7524C50.9216 9.84842 48.7727 9.39642 46.38 9.40042C42.3634 9.40042 39.1007 10.7404 36.5767 13.4004C34.0603 16.0684 32.8002 19.9044 32.8002 24.9044C32.8002 30.2364 34.1915 34.0884 36.9893 36.4524C39.7757 38.8204 42.9935 40.0004 46.6463 40.0004C51.0679 40.0004 54.5069 38.5964 56.9634 35.7964C58.5348 34.0284 59.4236 32.2884 59.6186 30.5804H52.298C51.8742 31.4244 51.3829 32.0844 50.8204 32.5644C49.8003 33.4444 48.4727 33.8844 46.8451 33.8844C45.2962 33.8844 43.9836 33.5204 42.8885 32.7964C41.0808 31.6364 40.1358 29.6044 40.0158 26.7124H59.9936C60.0236 24.2204 59.9486 22.3044 59.7536 20.9844ZM40.1958 21.7324C40.4583 19.8564 41.0958 18.3684 42.1084 17.2684C43.121 16.1724 44.5536 15.6204 46.3875 15.6164C48.0789 15.6164 49.4928 16.1324 50.6441 17.1684C51.7805 18.2124 52.4218 19.7284 52.553 21.7324H40.1958Z" fill="white"/>
</svg>
