<svg width="16" height="14" viewBox="0 0 16 14" fill="none" xmlns="http://www.w3.org/2000/svg">
<path d="M15.2281 6.35181H0.643446C0.288066 6.35181 0 6.64217 0 6.99996C0 7.35775 0.288035 7.64811 0.643446 7.64811H15.2281C15.5835 7.64811 15.8715 7.35797 15.8715 6.99996C15.8715 6.64195 15.5835 6.35181 15.2281 6.35181Z" fill="#2B1F72"/>
<path d="M15.8113 6.54158L9.50583 0.189747C9.25445 -0.0632489 8.84738 -0.0632489 8.596 0.189747C8.34463 0.442963 8.34463 0.853447 8.596 1.10644L14.4466 7.00001L8.596 12.8936C8.34463 13.1466 8.34463 13.5571 8.596 13.8101C8.72169 13.9367 8.8862 14 9.05092 14C9.21564 14 9.38014 13.9367 9.50583 13.8101L15.8113 7.45828C16.0627 7.20506 16.0627 6.79455 15.8113 6.54158Z" fill="#2B1F72"/>
</svg>
