<svg width="68" height="327" viewBox="0 0 68 327" fill="none" xmlns="http://www.w3.org/2000/svg">
<path opacity="0.62" fill-rule="evenodd" clip-rule="evenodd" d="M64.1371 320.946C63.5679 320.944 63.0109 321.111 62.5367 321.426C62.0625 321.74 61.6924 322.189 61.4733 322.714C61.2541 323.24 61.1958 323.818 61.3058 324.377C61.4158 324.935 61.6891 325.448 62.091 325.851C62.4929 326.255 63.0054 326.529 63.5636 326.641C64.1218 326.752 64.7005 326.696 65.2265 326.478C65.7524 326.26 66.202 325.892 66.5181 325.418C66.8343 324.945 67.0029 324.388 67.0025 323.819C67.0025 323.058 66.7008 322.329 66.1637 321.79C65.6266 321.252 64.8978 320.948 64.1371 320.946ZM33.663 320.946C33.0938 320.944 32.5368 321.111 32.0625 321.426C31.5883 321.74 31.2182 322.189 30.9991 322.714C30.78 323.24 30.7217 323.818 30.8316 324.377C30.9416 324.935 31.2149 325.448 31.6168 325.851C32.0188 326.255 32.5312 326.529 33.0894 326.641C33.6476 326.752 34.2263 326.696 34.7523 326.478C35.2783 326.26 35.7278 325.892 36.044 325.418C36.3601 324.945 36.5287 324.388 36.5283 323.819C36.5293 323.058 36.228 322.328 35.6906 321.789C35.1533 321.25 34.4239 320.947 33.663 320.946ZM2.88538 321.245C2.31594 321.244 1.7588 321.411 1.28455 321.726C0.810295 322.041 0.440247 322.49 0.221222 323.016C0.00218964 323.542 -0.0559692 324.12 0.0541382 324.679C0.164253 325.238 0.437637 325.751 0.839737 326.154C1.24183 326.558 1.75452 326.832 2.31291 326.944C2.8713 327.056 3.45023 326.999 3.97648 326.782C4.50274 326.564 4.9527 326.195 5.26924 325.722C5.58577 325.249 5.75466 324.692 5.75466 324.123C5.7552 323.745 5.6814 323.372 5.53749 323.023C5.39358 322.674 5.18236 322.357 4.91591 322.09C4.64947 321.822 4.33309 321.61 3.98468 321.465C3.63627 321.321 3.26273 321.246 2.88538 321.245ZM64.4366 285.518C63.8672 285.516 63.31 285.684 62.8358 285.999C62.3615 286.314 61.9915 286.763 61.7724 287.289C61.5534 287.814 61.4953 288.393 61.6054 288.952C61.7155 289.51 61.989 290.024 62.3911 290.427C62.7932 290.83 63.3058 291.105 63.8642 291.217C64.4226 291.329 65.0016 291.272 65.5278 291.055C66.0541 290.837 66.5039 290.468 66.8205 289.995C67.137 289.522 67.306 288.965 67.306 288.395C67.3065 288.018 67.2327 287.644 67.0888 287.296C66.9449 286.947 66.7337 286.63 66.4672 286.362C66.2008 286.095 65.8843 285.883 65.5359 285.738C65.1875 285.593 64.8139 285.519 64.4366 285.518ZM33.9625 285.518C33.3931 285.516 32.836 285.684 32.3617 285.999C31.8875 286.314 31.5173 286.763 31.2983 287.289C31.0793 287.814 31.0212 288.393 31.1313 288.952C31.2414 289.51 31.5148 290.024 31.9169 290.427C32.319 290.83 32.8317 291.105 33.3901 291.217C33.9485 291.329 34.5274 291.272 35.0536 291.055C35.5799 290.837 36.0298 290.468 36.3463 289.995C36.6628 289.522 36.8318 288.965 36.8318 288.395C36.8324 288.018 36.7586 287.644 36.6147 287.296C36.4707 286.947 36.2595 286.63 35.9931 286.362C35.7266 286.095 35.4102 285.883 35.0617 285.738C34.7133 285.593 34.3399 285.519 33.9625 285.518ZM3.18891 285.822C2.6193 285.819 2.06178 285.986 1.58699 286.301C1.11221 286.615 0.741432 287.064 0.521782 287.589C0.302132 288.115 0.243469 288.694 0.353127 289.253C0.462776 289.812 0.735901 290.326 1.13783 290.729C1.53976 291.133 2.05241 291.408 2.61091 291.52C3.1694 291.632 3.74858 291.576 4.27507 291.359C4.80156 291.141 5.25171 290.772 5.56842 290.299C5.88514 289.825 6.05413 289.269 6.05414 288.699C6.05505 288.322 5.98168 287.948 5.83815 287.6C5.69463 287.251 5.48375 286.934 5.21766 286.667C4.95158 286.399 4.63553 286.187 4.28742 286.042C3.93931 285.897 3.56602 285.822 3.18891 285.822ZM64.1371 250.094C63.5681 250.092 63.0112 250.259 62.5371 250.574C62.0629 250.889 61.6929 251.337 61.4737 251.862C61.2544 252.387 61.1959 252.965 61.3055 253.524C61.4151 254.082 61.688 254.595 62.0895 254.999C62.491 255.402 63.0032 255.677 63.5611 255.789C64.119 255.901 64.6976 255.845 65.2237 255.628C65.7497 255.411 66.1995 255.043 66.5161 254.57C66.8328 254.097 67.0021 253.541 67.0025 252.972C67.0035 252.21 66.7024 251.48 66.1652 250.94C65.628 250.401 64.8985 250.096 64.1371 250.094ZM33.663 250.094C33.0939 250.092 32.5372 250.259 32.063 250.574C31.5889 250.889 31.2187 251.337 30.9995 251.862C30.7803 252.387 30.7217 252.965 30.8313 253.524C30.941 254.082 31.2138 254.595 31.6153 254.999C32.0169 255.402 32.529 255.677 33.0869 255.789C33.6449 255.901 34.2235 255.845 34.7495 255.628C35.2756 255.411 35.7253 255.043 36.042 254.57C36.3586 254.097 36.5279 253.541 36.5283 252.972C36.5292 252.595 36.4558 252.221 36.3123 251.872C36.1688 251.524 35.9579 251.207 35.6918 250.939C35.4257 250.672 35.1096 250.46 34.7615 250.315C34.4134 250.17 34.0401 250.095 33.663 250.094ZM2.88538 250.398C2.31651 250.397 1.76005 250.564 1.28643 250.879C0.81282 251.195 0.443298 251.643 0.224678 252.168C0.00605011 252.693 -0.0519028 253.272 0.058197 253.83C0.168289 254.388 0.441505 254.901 0.843193 255.304C1.24488 255.706 1.75708 255.981 2.31489 256.093C2.8727 256.204 3.45107 256.148 3.97688 255.931C4.50268 255.714 4.95218 255.346 5.26865 254.873C5.58511 254.4 5.75426 253.844 5.75466 253.275C5.75557 252.898 5.68206 252.524 5.53828 252.175C5.3945 251.826 5.18332 251.509 4.91681 251.242C4.65029 250.974 4.33366 250.762 3.98508 250.617C3.6365 250.473 3.26283 250.398 2.88538 250.398ZM64.1371 213.457C63.5675 213.454 63.01 213.621 62.5352 213.936C62.0604 214.25 61.6898 214.699 61.4701 215.224C61.2505 215.75 61.1918 216.329 61.3014 216.888C61.4111 217.447 61.6841 217.961 62.0861 218.364C62.488 218.768 63.0007 219.043 63.5592 219.155C64.1177 219.267 64.6969 219.211 65.2234 218.994C65.7499 218.776 66.1999 218.407 66.5166 217.934C66.8334 217.46 67.0025 216.904 67.0025 216.334C67.0027 215.573 66.7013 214.843 66.1642 214.303C65.6272 213.764 64.8982 213.46 64.1371 213.457ZM33.663 213.457C33.0934 213.454 32.5359 213.621 32.0612 213.936C31.5864 214.25 31.2156 214.699 30.9959 215.224C30.7763 215.75 30.7176 216.329 30.8273 216.888C30.9369 217.447 31.21 217.961 31.6119 218.364C32.0138 218.768 32.5266 219.043 33.0851 219.155C33.6436 219.267 34.2227 219.211 34.7492 218.994C35.2757 218.776 35.7258 218.407 36.0425 217.934C36.3592 217.46 36.5283 216.904 36.5283 216.334C36.5294 215.573 36.2283 214.842 35.691 214.302C35.1538 213.763 34.4243 213.459 33.663 213.457ZM2.88538 213.76C2.31594 213.758 1.7588 213.926 1.28455 214.241C0.810295 214.556 0.440247 215.005 0.221222 215.531C0.00218964 216.056 -0.0559692 216.635 0.0541382 217.194C0.164253 217.753 0.437637 218.266 0.839737 218.669C1.24183 219.073 1.75452 219.347 2.31291 219.459C2.8713 219.571 3.45023 219.514 3.97648 219.297C4.50274 219.079 4.9527 218.71 5.26924 218.237C5.58577 217.764 5.75466 217.207 5.75466 216.638C5.75557 216.26 5.68206 215.886 5.53828 215.537C5.3945 215.188 5.18332 214.871 4.91681 214.604C4.65029 214.336 4.33366 214.124 3.98508 213.98C3.6365 213.835 3.26283 213.76 2.88538 213.76ZM64.1371 178.033C63.5675 178.031 63.01 178.197 62.5352 178.512C62.0604 178.827 61.6898 179.275 61.4701 179.801C61.2505 180.326 61.1918 180.905 61.3014 181.464C61.4111 182.023 61.6841 182.537 62.0861 182.941C62.488 183.344 63.0007 183.62 63.5592 183.732C64.1177 183.844 64.6969 183.787 65.2234 183.57C65.7499 183.352 66.1999 182.984 66.5166 182.51C66.8334 182.037 67.0025 181.48 67.0025 180.91C67.0035 180.149 66.7024 179.418 66.1652 178.879C65.628 178.339 64.8985 178.035 64.1371 178.033ZM33.663 178.033C33.0934 178.031 32.5359 178.197 32.0612 178.512C31.5864 178.827 31.2156 179.275 30.9959 179.801C30.7763 180.326 30.7176 180.905 30.8273 181.464C30.9369 182.023 31.21 182.537 31.6119 182.941C32.0138 183.344 32.5266 183.62 33.0851 183.732C33.6436 183.844 34.2227 183.787 34.7492 183.57C35.2757 183.352 35.7258 182.984 36.0425 182.51C36.3592 182.037 36.5283 181.48 36.5283 180.91C36.5292 180.533 36.4558 180.16 36.3123 179.811C36.1688 179.462 35.9579 179.145 35.6918 178.878C35.4257 178.611 35.1096 178.399 34.7615 178.254C34.4134 178.109 34.0401 178.034 33.663 178.033ZM2.88538 178.336C2.31651 178.335 1.76005 178.503 1.28643 178.818C0.81282 179.133 0.443298 179.582 0.224678 180.107C0.00605011 180.632 -0.0519028 181.21 0.058197 181.768C0.168289 182.326 0.441505 182.839 0.843193 183.242C1.24488 183.645 1.75708 183.92 2.31489 184.031C2.8727 184.143 3.45107 184.087 3.97688 183.87C4.50268 183.652 4.95218 183.284 5.26865 182.811C5.58511 182.339 5.75426 181.783 5.75466 181.214C5.75557 180.836 5.68206 180.463 5.53828 180.114C5.3945 179.765 5.18332 179.447 4.91681 179.18C4.65029 178.913 4.33366 178.701 3.98508 178.556C3.6365 178.411 3.26283 178.337 2.88538 178.336ZM64.4366 142.609C63.8676 142.608 63.311 142.776 62.8373 143.091C62.3636 143.406 61.9941 143.855 61.7756 144.381C61.5571 144.906 61.4994 145.484 61.6098 146.043C61.7202 146.601 61.9938 147.114 62.3959 147.516C62.798 147.919 63.3105 148.193 63.8686 148.305C64.4267 148.416 65.0052 148.359 65.531 148.141C66.0567 147.923 66.506 147.555 66.8219 147.081C67.1379 146.608 67.3064 146.052 67.306 145.483C67.3065 145.106 67.2326 144.732 67.0886 144.383C66.9446 144.035 66.7333 143.718 66.4668 143.451C66.2004 143.184 65.884 142.973 65.5356 142.828C65.1872 142.684 64.8137 142.609 64.4366 142.609ZM33.9625 142.609C33.3935 142.608 32.8368 142.776 32.3631 143.091C31.8894 143.406 31.52 143.855 31.3014 144.381C31.0829 144.906 31.0252 145.484 31.1357 146.043C31.2461 146.601 31.5196 147.114 31.9217 147.516C32.3238 147.919 32.8363 148.193 33.3944 148.305C33.9525 148.416 34.5311 148.359 35.0568 148.141C35.5825 147.923 36.0318 147.555 36.3478 147.081C36.6638 146.608 36.8322 146.052 36.8318 145.483C36.8323 145.106 36.7584 144.732 36.6145 144.383C36.4705 144.035 36.2593 143.718 35.9928 143.451C35.7263 143.184 35.4098 142.973 35.0615 142.828C34.7131 142.684 34.3397 142.609 33.9625 142.609ZM3.18891 142.913C2.6197 142.911 2.06261 143.078 1.58838 143.393C1.11414 143.707 0.744072 144.156 0.524948 144.681C0.305817 145.207 0.247505 145.785 0.357468 146.344C0.467438 146.902 0.740738 147.415 1.14267 147.819C1.5446 148.222 2.05717 148.496 2.61535 148.608C3.17353 148.719 3.75227 148.663 4.27823 148.445C4.8042 148.227 5.25374 147.859 5.5699 147.385C5.88606 146.912 6.05454 146.355 6.05414 145.786C6.05511 145.025 5.7538 144.295 5.21648 143.756C4.67915 143.217 3.94987 142.914 3.18891 142.913ZM64.7401 106.882C64.1709 106.88 63.6139 107.047 63.1397 107.362C62.6655 107.677 62.2954 108.125 62.0763 108.651C61.8571 109.176 61.7988 109.754 61.9088 110.313C62.0188 110.871 62.2921 111.385 62.694 111.788C63.0959 112.191 63.6084 112.466 64.1666 112.577C64.7248 112.689 65.3035 112.632 65.8295 112.414C66.3554 112.197 66.805 111.828 67.1211 111.355C67.4373 110.881 67.6059 110.325 67.6055 109.755C67.6064 108.994 67.3051 108.264 66.7678 107.725C66.2305 107.187 65.5011 106.883 64.7401 106.882ZM34.2661 106.882C33.6969 106.88 33.1398 107.047 32.6655 107.362C32.1913 107.677 31.8212 108.125 31.6021 108.651C31.383 109.176 31.3247 109.754 31.4346 110.313C31.5446 110.871 31.8179 111.385 32.2198 111.788C32.6218 112.191 33.1342 112.466 33.6924 112.577C34.2506 112.689 34.8293 112.632 35.3553 112.414C35.8813 112.197 36.3308 111.828 36.647 111.355C36.9631 110.881 37.1317 110.325 37.1313 109.755C37.1323 108.994 36.831 108.264 36.2936 107.725C35.7563 107.187 35.027 106.883 34.2661 106.882ZM3.48839 107.182C2.91895 107.18 2.36181 107.347 1.88756 107.663C1.4133 107.978 1.04325 108.427 0.824219 108.952C0.605194 109.478 0.547028 110.057 0.657143 110.615C0.76725 111.174 1.04064 111.688 1.44273 112.091C1.84483 112.494 2.35753 112.769 2.91592 112.881C3.4743 112.992 4.05333 112.936 4.57959 112.718C5.10584 112.501 5.5557 112.132 5.87224 111.658C6.18878 111.185 6.35767 110.628 6.35767 110.059C6.3582 109.682 6.2844 109.308 6.1405 108.959C5.99659 108.61 5.78546 108.293 5.51902 108.026C5.25257 107.759 4.9361 107.547 4.58768 107.402C4.23927 107.257 3.86573 107.182 3.48839 107.182ZM64.1371 71.1525C63.5677 71.1502 63.0105 71.317 62.5359 71.6318C62.0614 71.9465 61.6909 72.395 61.4714 72.9204C61.2519 73.4458 61.1934 74.0246 61.3031 74.5833C61.4128 75.1421 61.6859 75.6557 62.0877 76.0591C62.4896 76.4626 63.0021 76.7377 63.5604 76.8496C64.1187 76.9615 64.6978 76.9052 65.2241 76.6878C65.7504 76.4704 66.2002 76.1018 66.5168 75.6285C66.8334 75.1552 67.0025 74.5985 67.0025 74.0291C67.0033 73.2679 66.7021 72.5374 66.1649 71.9981C65.6277 71.4587 64.8984 71.1546 64.1371 71.1525ZM33.663 71.1525C33.0935 71.1502 32.5363 71.317 32.0617 71.6318C31.5872 71.9465 31.2168 72.395 30.9973 72.9204C30.7779 73.4458 30.7192 74.0246 30.829 74.5833C30.9387 75.1421 31.2117 75.6557 31.6136 76.0591C32.0154 76.4626 32.528 76.7377 33.0863 76.8496C33.6447 76.9615 34.2236 76.9052 34.7499 76.6878C35.2762 76.4704 35.7261 76.1018 36.0427 75.6285C36.3593 75.1552 36.5283 74.5985 36.5283 74.0291C36.529 73.6521 36.4555 73.2786 36.3119 72.93C36.1683 72.5814 35.9575 72.2645 35.6914 71.9974C35.4254 71.7302 35.1093 71.5182 34.7613 71.3732C34.4132 71.2282 34.04 71.1532 33.663 71.1525ZM2.88538 71.4552C2.31613 71.4538 1.75926 71.6212 1.28524 71.9365C0.811226 72.2517 0.441345 72.7004 0.222504 73.2259C0.00366211 73.7514 -0.0543518 74.3301 0.0558167 74.8886C0.165993 75.447 0.4394 75.9603 0.841415 76.3633C1.24343 76.7663 1.75599 77.0411 2.31419 77.1526C2.87241 77.2642 3.45111 77.2077 3.97717 76.9902C4.50323 76.7727 4.95293 76.404 5.26934 75.9307C5.58575 75.4575 5.75466 74.9011 5.75466 74.3318C5.75536 73.9545 5.68166 73.5807 5.53779 73.2319C5.39393 72.883 5.18279 72.5659 4.91631 72.2988C4.64982 72.0316 4.33326 71.8196 3.98478 71.6748C3.6363 71.5301 3.26273 71.4555 2.88538 71.4552ZM64.1371 35.4249C63.5677 35.4227 63.0105 35.5895 62.5359 35.9042C62.0614 36.2189 61.6908 36.6674 61.4714 37.1929C61.2519 37.7184 61.1934 38.2971 61.3031 38.8559C61.4129 39.4146 61.6859 39.9283 62.0878 40.3317C62.4897 40.7351 63.0024 41.0102 63.5607 41.1221C64.1191 41.2339 64.698 41.1776 65.2243 40.9601C65.7506 40.7427 66.2005 40.3739 66.517 39.9006C66.8336 39.4272 67.0025 38.8706 67.0025 38.3011C67.0032 37.54 66.7019 36.8096 66.1647 36.2703C65.6275 35.7311 64.8983 35.427 64.1371 35.4249ZM33.663 35.4249C33.0935 35.4227 32.5363 35.5895 32.0617 35.9042C31.5872 36.2189 31.2167 36.6674 30.9972 37.1929C30.7778 37.7184 30.7192 38.2971 30.829 38.8559C30.9387 39.4146 31.2119 39.9283 31.6138 40.3317C32.0157 40.7351 32.5282 41.0102 33.0865 41.1221C33.6449 41.2339 34.2239 41.1776 34.7502 40.9601C35.2765 40.7427 35.7263 40.3739 36.0429 39.9006C36.3594 39.4272 36.5284 38.8706 36.5283 38.3011C36.5297 37.5398 36.2287 36.809 35.6913 36.2696C35.154 35.7302 34.4243 35.4264 33.663 35.4249ZM2.88538 35.7276C2.31612 35.7262 1.75917 35.8937 1.28514 36.2089C0.811119 36.5241 0.44133 36.9729 0.222504 37.4984C0.00366974 38.024 -0.0543823 38.6026 0.0558167 39.1611C0.166023 39.7196 0.439461 40.2329 0.841515 40.6359C1.24357 41.0389 1.75616 41.3136 2.31439 41.4251C2.87263 41.5366 3.45142 41.48 3.97747 41.2625C4.50352 41.0449 4.95317 40.6761 5.26954 40.2029C5.5859 39.7296 5.75474 39.1731 5.75466 38.6038C5.75536 38.2265 5.68166 37.8527 5.53779 37.5039C5.39392 37.1551 5.1827 36.8381 4.91621 36.5709C4.64972 36.3038 4.33326 36.0918 3.98478 35.9471C3.6363 35.8024 3.26271 35.7278 2.88538 35.7276ZM64.1371 2.23301e-05C63.5677 -0.00222083 63.0105 0.164583 62.5359 0.479323C62.0614 0.794062 61.6908 1.24257 61.4714 1.76803C61.2519 2.29349 61.1934 2.87226 61.3031 3.43103C61.4129 3.9898 61.6859 4.50343 62.0878 4.90685C62.4897 5.31027 63.0024 5.58534 63.5607 5.69721C64.1191 5.80908 64.698 5.75272 65.2243 5.53527C65.7506 5.31782 66.2005 4.94905 66.517 4.47569C66.8336 4.00234 67.0025 3.44569 67.0025 2.87624C67.0032 2.11508 66.7019 1.38471 66.1647 0.845467C65.6275 0.306221 64.8983 0.00216607 64.1371 2.23301e-05ZM33.663 2.23301e-05C33.0935 -0.00222083 32.5363 0.164583 32.0617 0.479323C31.5872 0.794062 31.2167 1.24257 30.9972 1.76803C30.7778 2.29349 30.7192 2.87226 30.829 3.43103C30.9387 3.9898 31.2119 4.50343 31.6138 4.90685C32.0157 5.31027 32.5282 5.58534 33.0865 5.69721C33.6449 5.80908 34.2239 5.75272 34.7502 5.53527C35.2765 5.31782 35.7263 4.94905 36.0429 4.47569C36.3594 4.00234 36.5284 3.44569 36.5283 2.87624C36.5297 2.11489 36.2287 1.38416 35.6913 0.844776C35.154 0.30539 34.4243 0.00152359 33.663 2.23301e-05ZM2.88538 0.302734C2.31612 0.301293 1.75917 0.468783 1.28514 0.784011C0.811119 1.09924 0.44133 1.54803 0.222504 2.07356C0.00366974 2.59909 -0.0543823 3.17774 0.0558167 3.73624C0.166023 4.29474 0.439461 4.808 0.841515 5.21102C1.24357 5.61404 1.75616 5.88868 2.31439 6.00022C2.87263 6.11176 3.45142 6.05518 3.97747 5.83761C4.50352 5.62004 4.95317 5.25128 5.26954 4.77801C5.5859 4.30474 5.75474 3.74823 5.75466 3.17896C5.75536 2.80163 5.68166 2.42786 5.53779 2.07904C5.39392 1.73022 5.1827 1.41319 4.91621 1.14606C4.64972 0.878925 4.33326 0.666957 3.98478 0.522253C3.6363 0.37755 3.26271 0.302947 2.88538 0.302734Z" fill="#9E9E9E"/>
</svg>
