<svg width="268" height="55" viewBox="0 0 268 55" fill="none" xmlns="http://www.w3.org/2000/svg">
<path opacity="0.62" fill-rule="evenodd" clip-rule="evenodd" d="M4.96198 52.1784C4.96362 51.7153 4.82678 51.2622 4.56876 50.8763C4.31073 50.4905 3.94318 50.1895 3.5126 50.0112C3.08203 49.8329 2.60785 49.7855 2.15012 49.875C1.69238 49.9644 1.27173 50.1868 0.941376 50.5137C0.611023 50.8407 0.385895 51.2576 0.294464 51.7117C0.203033 52.1659 0.249481 52.6367 0.427856 53.0646C0.606232 53.4925 0.908508 53.8582 1.29645 54.1154C1.68439 54.3726 2.1405 54.5098 2.60703 54.5094C3.23044 54.5094 3.82846 54.264 4.2699 53.8271C4.71133 53.3901 4.96021 52.7972 4.96198 52.1784ZM4.96198 27.3864C4.96362 26.9233 4.82678 26.4702 4.56876 26.0843C4.31073 25.6985 3.94318 25.3975 3.5126 25.2192C3.08203 25.0409 2.60785 24.9935 2.15012 25.0829C1.69238 25.1724 1.27173 25.3948 0.941376 25.7217C0.611023 26.0487 0.385895 26.4656 0.294464 26.9197C0.203033 27.3739 0.249481 27.8447 0.427856 28.2726C0.606232 28.7005 0.908508 29.0662 1.29645 29.3234C1.68439 29.5806 2.1405 29.7178 2.60703 29.7174C3.23068 29.7182 3.82913 29.4731 4.27075 29.036C4.71237 28.5988 4.961 28.0054 4.96198 27.3864ZM4.71652 2.34752C4.71783 1.88425 4.58066 1.431 4.32233 1.04517C4.064 0.659344 3.69614 0.358292 3.26535 0.180103C2.83456 0.00191498 2.36017 -0.0454025 1.90228 0.044178C1.4444 0.133759 1.02356 0.356174 0.693085 0.683292C0.36261 1.01041 0.137329 1.42751 0.0458069 1.88178C-0.0457153 2.33606 0.000610352 2.80704 0.178894 3.23517C0.357178 3.6633 0.659424 4.02936 1.04739 4.28688C1.43536 4.54439 1.89157 4.68179 2.35828 4.68179C2.66754 4.68222 2.97382 4.62219 3.2597 4.50512C3.54559 4.38804 3.80545 4.2162 4.02444 3.99944C4.24344 3.78267 4.41727 3.52528 4.53601 3.24184C4.65475 2.95839 4.71609 2.6545 4.71652 2.34752ZM33.9975 52.422C33.9988 51.9587 33.8617 51.5055 33.6033 51.1197C33.345 50.7338 32.9771 50.4328 32.5463 50.2546C32.1155 50.0764 31.6412 50.0291 31.1833 50.1187C30.7254 50.2082 30.3046 50.4307 29.9741 50.7579C29.6436 51.085 29.4183 51.5021 29.3268 51.9564C29.2353 52.4106 29.2816 52.8816 29.4599 53.3097C29.6382 53.7379 29.9404 54.1039 30.3284 54.3614C30.7164 54.6189 31.1726 54.7564 31.6393 54.7564C31.9485 54.7568 32.2548 54.6968 32.5407 54.5797C32.8266 54.4626 33.0864 54.2908 33.3054 54.074C33.5244 53.8572 33.6982 53.5998 33.817 53.3163C33.9357 53.0329 33.9971 52.729 33.9975 52.422ZM33.9975 27.6301C33.9988 27.1668 33.8617 26.7136 33.6033 26.3277C33.345 25.9419 32.9771 25.6408 32.5463 25.4626C32.1155 25.2844 31.6412 25.2372 31.1833 25.3267C30.7254 25.4163 30.3046 25.6387 29.9741 25.9659C29.6436 26.293 29.4183 26.7101 29.3268 27.1643C29.2353 27.6186 29.2816 28.0896 29.4599 28.5177C29.6382 28.9459 29.9404 29.3119 30.3284 29.5694C30.7164 29.8269 31.1726 29.9644 31.6393 29.9644C31.9485 29.9648 32.2548 29.9048 32.5407 29.7877C32.8266 29.6706 33.0864 29.4988 33.3054 29.282C33.5244 29.0652 33.6982 28.8078 33.817 28.5243C33.9357 28.2409 33.9971 27.9371 33.9975 27.6301ZM33.7488 2.59444C33.7507 2.13104 33.6141 1.67747 33.3562 1.29122C33.0983 0.904961 32.7306 0.603317 32.2999 0.424622C31.8691 0.245926 31.3947 0.198208 30.9365 0.287415C30.4784 0.376621 30.0573 0.598816 29.7265 0.925804C29.3957 1.25279 29.1701 1.66985 29.0783 2.12421C28.9865 2.57858 29.0326 3.04976 29.2108 3.47808C29.389 3.9064 29.6912 4.27261 30.0793 4.53028C30.4673 4.78794 30.9237 4.92543 31.3905 4.92543C31.6996 4.92617 32.0057 4.86648 32.2915 4.74971C32.5773 4.63295 32.8372 4.4614 33.0562 4.24492C33.2752 4.02845 33.4491 3.77134 33.5679 3.48813C33.6867 3.20492 33.7482 2.90123 33.7488 2.59444ZM63.0298 52.1784C63.0314 51.7154 62.8946 51.2624 62.6367 50.8767C62.3789 50.4909 62.0115 50.1899 61.5811 50.0115C61.1507 49.8332 60.6768 49.7855 60.2191 49.8747C59.7615 49.9639 59.3408 50.1859 59.0103 50.5125C58.6799 50.8392 58.4544 51.2559 58.3626 51.7097C58.2708 52.1636 58.3168 52.6344 58.4947 53.0623C58.6725 53.4903 58.9743 53.8562 59.3618 54.1138C59.7493 54.3714 60.2051 54.5091 60.6715 54.5094C61.2955 54.5103 61.8943 54.2653 62.3365 53.8283C62.7787 53.3912 63.028 52.7978 63.0298 52.1784ZM63.0298 27.3864C63.0314 26.9234 62.8946 26.4705 62.6367 26.0847C62.3789 25.699 62.0115 25.3979 61.5811 25.2195C61.1507 25.0412 60.6768 24.9935 60.2191 25.0827C59.7615 25.1719 59.3408 25.3939 59.0103 25.7205C58.6799 26.0472 58.4544 26.4639 58.3626 26.9177C58.2708 27.3716 58.3168 27.8424 58.4947 28.2703C58.6725 28.6983 58.9743 29.0642 59.3618 29.3218C59.7493 29.5794 60.2051 29.7171 60.6715 29.7174C60.9806 29.7182 61.2867 29.6585 61.5725 29.5417C61.8583 29.4249 62.1182 29.2534 62.3372 29.0369C62.5562 28.8204 62.7301 28.5632 62.8489 28.28C62.9677 27.9968 63.0292 27.6932 63.0298 27.3864ZM62.781 2.34752C62.782 1.88471 62.6446 1.432 62.3864 1.0467C62.1281 0.661396 61.7605 0.360779 61.33 0.182919C60.8996 0.00505829 60.4257 -0.0420914 59.9683 0.0474777C59.5109 0.137047 59.0905 0.359314 58.7603 0.686104C58.4302 1.01289 58.2051 1.42959 58.1136 1.88339C58.0221 2.33719 58.0683 2.80772 58.2462 3.23549C58.4242 3.66325 58.726 4.02894 59.1134 4.2864C59.5009 4.54385 59.9565 4.68147 60.4227 4.68179C60.7321 4.68253 61.0385 4.62273 61.3245 4.50576C61.6106 4.38879 61.8705 4.21698 62.0896 4.00016C62.3086 3.78334 62.4824 3.52575 62.6011 3.24216C62.7197 2.95858 62.7809 2.65458 62.781 2.34752ZM93.057 52.1784C93.059 51.715 92.9224 51.2614 92.6644 50.8751C92.4065 50.4889 92.0389 50.1873 91.6082 50.0086C91.1774 49.8299 90.7029 49.7822 90.2448 49.8714C89.7867 49.9606 89.3656 50.1827 89.0348 50.5097C88.704 50.8367 88.4783 51.2539 88.3866 51.7082C88.2948 52.1626 88.3409 52.6338 88.5191 53.0621C88.6973 53.4904 88.9995 53.8565 89.3876 54.1142C89.7756 54.3719 90.2319 54.5094 90.6987 54.5094C91.3225 54.5096 91.921 54.2644 92.363 53.8275C92.805 53.3906 93.0546 52.7976 93.057 52.1784ZM93.057 27.3864C93.059 26.923 92.9224 26.4695 92.6644 26.0832C92.4065 25.697 92.0389 25.3953 91.6082 25.2166C91.1774 25.0379 90.7029 24.9902 90.2448 25.0794C89.7867 25.1686 89.3656 25.3907 89.0348 25.7177C88.704 26.0447 88.4783 26.4619 88.3866 26.9162C88.2948 27.3706 88.3409 27.8418 88.5191 28.2701C88.6973 28.6984 88.9995 29.0645 89.3876 29.3222C89.7756 29.5799 90.2319 29.7174 90.6987 29.7174C91.3227 29.7183 91.9216 29.4733 92.3638 29.0363C92.8059 28.5992 93.0553 28.0058 93.057 27.3864ZM92.8083 2.34752C92.8096 1.88425 92.6724 1.431 92.414 1.04517C92.1557 0.659344 91.7879 0.358292 91.3571 0.180103C90.9263 0.00191498 90.4519 -0.0454025 89.994 0.044178C89.5361 0.133759 89.1153 0.356174 88.7848 0.683292C88.4543 1.01041 88.2291 1.42751 88.1376 1.88178C88.046 2.33606 88.0923 2.80704 88.2706 3.23517C88.4489 3.6633 88.7512 4.02936 89.1391 4.28688C89.5271 4.54439 89.9833 4.68179 90.45 4.68179C90.7593 4.68253 91.0658 4.62273 91.3518 4.50576C91.6378 4.38879 91.8978 4.21698 92.1169 4.00016C92.3359 3.78334 92.5097 3.52575 92.6284 3.24216C92.747 2.95858 92.8082 2.65458 92.8083 2.34752ZM122.089 52.1784C122.091 51.715 121.955 51.2614 121.697 50.8751C121.439 50.4889 121.071 50.1873 120.64 50.0086C120.21 49.8299 119.735 49.7822 119.277 49.8714C118.819 49.9606 118.398 50.1827 118.067 50.5097C117.736 50.8367 117.511 51.2539 117.419 51.7082C117.327 52.1626 117.373 52.6338 117.551 53.0621C117.73 53.4904 118.032 53.8565 118.42 54.1142C118.808 54.3719 119.264 54.5094 119.731 54.5094C120.355 54.5103 120.954 54.2653 121.396 53.8283C121.838 53.3912 122.087 52.7978 122.089 52.1784ZM122.089 27.3864C122.091 26.923 121.955 26.4695 121.697 26.0832C121.439 25.697 121.071 25.3953 120.64 25.2166C120.21 25.0379 119.735 24.9902 119.277 25.0794C118.819 25.1686 118.398 25.3907 118.067 25.7177C117.736 26.0447 117.511 26.4619 117.419 26.9162C117.327 27.3706 117.373 27.8418 117.551 28.2701C117.73 28.6984 118.032 29.0645 118.42 29.3222C118.808 29.5799 119.264 29.7174 119.731 29.7174C120.04 29.7182 120.346 29.6585 120.632 29.5417C120.918 29.4249 121.178 29.2534 121.397 29.0369C121.616 28.8204 121.79 28.5632 121.908 28.28C122.027 27.9968 122.089 27.6932 122.089 27.3864ZM121.84 2.34752C121.841 1.88471 121.704 1.432 121.446 1.0467C121.188 0.661396 120.82 0.360779 120.39 0.182919C119.959 0.00505829 119.485 -0.0420914 119.028 0.0474777C118.57 0.137047 118.15 0.359314 117.82 0.686104C117.49 1.01289 117.265 1.42959 117.173 1.88339C117.082 2.33719 117.128 2.80772 117.306 3.23549C117.484 3.66325 117.785 4.02894 118.173 4.2864C118.56 4.54385 119.016 4.68147 119.482 4.68179C119.792 4.68253 120.098 4.62273 120.384 4.50576C120.67 4.38879 120.93 4.21698 121.149 4.00016C121.368 3.78334 121.542 3.52575 121.661 3.24216C121.779 2.95858 121.84 2.65458 121.84 2.34752ZM151.121 52.422C151.122 51.9591 150.985 51.5062 150.727 51.1209C150.468 50.7355 150.1 50.4349 149.67 50.2572C149.239 50.0794 148.765 50.0324 148.308 50.1223C147.85 50.2121 147.43 50.4347 147.1 50.7618C146.77 51.0889 146.545 51.5059 146.454 51.9599C146.363 52.4139 146.409 52.8846 146.588 53.3123C146.766 53.74 147.068 54.1055 147.456 54.3626C147.844 54.6196 148.3 54.7567 148.767 54.7564C149.076 54.7568 149.382 54.6967 149.667 54.5795C149.953 54.4624 150.213 54.2905 150.431 54.0737C150.65 53.8569 150.824 53.5995 150.942 53.3161C151.06 53.0327 151.121 52.7288 151.121 52.422ZM151.121 27.6301C151.122 27.1671 150.985 26.7142 150.727 26.3289C150.468 25.9435 150.1 25.6429 149.67 25.4652C149.239 25.2874 148.765 25.2404 148.308 25.3303C147.85 25.4201 147.43 25.6427 147.1 25.9698C146.77 26.2969 146.545 26.7139 146.454 27.1679C146.363 27.6219 146.409 28.0926 146.588 28.5203C146.766 28.948 147.068 29.3135 147.456 29.5706C147.844 29.8276 148.3 29.9647 148.767 29.9644C149.076 29.9647 149.382 29.9047 149.667 29.7875C149.953 29.6704 150.213 29.4986 150.431 29.2818C150.65 29.065 150.824 28.8075 150.942 28.5241C151.06 28.2407 151.121 27.9369 151.121 27.6301ZM150.873 2.59444C150.874 2.13136 150.738 1.67815 150.479 1.29234C150.221 0.906536 149.854 0.605465 149.423 0.427197C148.993 0.248928 148.519 0.201488 148.061 0.290951C147.603 0.380413 147.182 0.602753 146.852 0.929741C146.522 1.25673 146.297 1.67372 146.205 2.12783C146.114 2.58193 146.16 3.05275 146.339 3.48065C146.517 3.90855 146.819 4.27427 147.207 4.53148C147.595 4.78869 148.051 4.92575 148.518 4.92543C149.141 4.92622 149.74 4.68109 150.181 4.24395C150.623 3.80682 150.872 3.21352 150.873 2.59444ZM180.402 52.6689C180.404 52.2059 180.267 51.7527 180.009 51.3669C179.751 50.9811 179.384 50.68 178.953 50.5018C178.522 50.3235 178.048 50.2761 177.591 50.3655C177.133 50.455 176.712 50.6773 176.382 51.0043C176.052 51.3313 175.826 51.7482 175.735 52.2023C175.644 52.6564 175.69 53.1272 175.868 53.5551C176.047 53.983 176.349 54.3488 176.737 54.606C177.125 54.8632 177.581 55.0003 178.048 55C178.671 55.0008 179.27 54.7557 179.711 54.3185C180.153 53.8814 180.402 53.288 180.402 52.6689ZM180.402 27.877C180.404 27.4139 180.267 26.9607 180.009 26.5749C179.751 26.1891 179.384 25.888 178.953 25.7098C178.522 25.5315 178.048 25.4841 177.591 25.5735C177.133 25.663 176.712 25.8853 176.382 26.2123C176.052 26.5393 175.826 26.9562 175.735 27.4103C175.644 27.8644 175.69 28.3352 175.868 28.7631C176.047 29.191 176.349 29.5568 176.737 29.814C177.125 30.0712 177.581 30.2083 178.048 30.208C178.671 30.2088 179.27 29.9637 179.711 29.5265C180.153 29.0894 180.402 28.4961 180.402 27.877ZM180.157 2.83808C180.158 2.37481 180.021 1.92156 179.763 1.53574C179.504 1.14991 179.137 0.848862 178.706 0.670673C178.275 0.492485 177.801 0.445164 177.343 0.534744C176.885 0.624325 176.464 0.846741 176.134 1.17386C175.803 1.50098 175.578 1.91808 175.486 2.37235C175.395 2.82663 175.441 3.29768 175.619 3.72581C175.798 4.15395 176.1 4.51993 176.488 4.77745C176.876 5.03496 177.332 5.17236 177.799 5.17236C178.108 5.17279 178.414 5.11276 178.7 4.99568C178.986 4.8786 179.246 4.70684 179.465 4.49008C179.684 4.27332 179.858 4.01585 179.976 3.7324C180.095 3.44896 180.157 3.14506 180.157 2.83808ZM209.685 52.1784C209.687 51.7151 209.551 51.2618 209.293 50.8757C209.035 50.4896 208.667 50.1882 208.237 50.0097C207.806 49.8311 207.332 49.7835 206.874 49.8728C206.416 49.962 205.995 50.1842 205.664 50.5111C205.333 50.838 205.108 51.255 205.016 51.7092C204.925 52.1634 204.971 52.6345 205.149 53.0626C205.327 53.4908 205.629 53.8568 206.017 54.1144C206.405 54.3719 206.861 54.5094 207.328 54.5094C207.952 54.5101 208.55 54.2651 208.992 53.828C209.434 53.391 209.684 52.7977 209.685 52.1784ZM209.685 27.3864C209.687 26.9231 209.551 26.4698 209.293 26.0837C209.035 25.6976 208.667 25.3963 208.237 25.2178C207.806 25.0392 207.332 24.9915 206.874 25.0808C206.416 25.17 205.995 25.3922 205.664 25.7191C205.333 26.046 205.108 26.463 205.016 26.9173C204.925 27.3715 204.971 27.8425 205.149 28.2706C205.327 28.6988 205.629 29.0648 206.017 29.3224C206.405 29.5799 206.861 29.7174 207.328 29.7174C207.637 29.718 207.943 29.6582 208.229 29.5414C208.514 29.4246 208.774 29.2531 208.993 29.0366C209.212 28.8201 209.386 28.563 209.505 28.2799C209.623 27.9967 209.685 27.6931 209.685 27.3864ZM209.437 2.34752C209.439 1.88441 209.301 1.43136 209.043 1.04573C208.785 0.660099 208.417 0.359188 207.986 0.181149C207.555 0.00310898 207.081 -0.0440865 206.623 0.0455437C206.166 0.135174 205.745 0.357605 205.415 0.684658C205.084 1.01171 204.859 1.4287 204.768 1.88283C204.676 2.33696 204.723 2.80776 204.901 3.23573C205.079 3.6637 205.381 4.02954 205.769 4.28696C206.157 4.54437 206.613 4.68179 207.08 4.68179C207.389 4.68235 207.695 4.62239 207.981 4.50536C208.267 4.38832 208.527 4.21655 208.746 3.99975C208.965 3.78296 209.139 3.52542 209.257 3.24192C209.376 2.95841 209.437 2.6545 209.437 2.34752ZM238.967 52.1784C238.969 51.7151 238.832 51.2618 238.574 50.8757C238.316 50.4896 237.948 50.1882 237.518 50.0097C237.087 49.8311 236.613 49.7835 236.155 49.8728C235.697 49.9621 235.276 50.1842 234.945 50.5112C234.615 50.8381 234.389 51.2552 234.298 51.7094C234.206 52.1637 234.252 52.6346 234.43 53.0628C234.608 53.491 234.911 53.857 235.299 54.1145C235.687 54.372 236.143 54.5095 236.609 54.5094C237.233 54.51 237.832 54.2649 238.274 53.8279C238.716 53.3908 238.965 52.7976 238.967 52.1784ZM238.967 27.3864C238.969 26.9231 238.832 26.4698 238.574 26.0837C238.316 25.6976 237.948 25.3962 237.518 25.2177C237.087 25.0391 236.613 24.9915 236.155 25.0808C235.697 25.1701 235.276 25.3923 234.945 25.7192C234.615 26.0462 234.389 26.4632 234.298 26.9174C234.206 27.3717 234.252 27.8427 234.43 28.2709C234.608 28.699 234.911 29.065 235.299 29.3225C235.687 29.58 236.143 29.7175 236.609 29.7174C237.233 29.7186 237.832 29.4737 238.274 29.0365C238.717 28.5994 238.966 28.0058 238.967 27.3864ZM238.719 2.34752C238.72 1.88439 238.583 1.43129 238.324 1.04565C238.066 0.660011 237.698 0.359177 237.267 0.181149C236.837 0.00312042 236.362 -0.0441132 235.905 0.0455437C235.447 0.135201 235.026 0.357655 234.696 0.684742C234.366 1.01183 234.141 1.42884 234.049 1.88299C233.958 2.33714 234.004 2.808 234.182 3.23597C234.361 3.66394 234.663 4.02975 235.051 4.28712C235.439 4.54449 235.895 4.68186 236.361 4.68179C236.671 4.68235 236.977 4.6224 237.263 4.50536C237.549 4.38831 237.809 4.21648 238.028 3.99968C238.246 3.78288 238.42 3.52542 238.539 3.24192C238.657 2.95842 238.718 2.65449 238.719 2.34752ZM268 52.1784C268.002 51.7151 267.865 51.2618 267.607 50.8757C267.349 50.4896 266.982 50.1882 266.551 50.0097C266.12 49.8311 265.646 49.7835 265.188 49.8728C264.73 49.9621 264.309 50.1842 263.978 50.5112C263.648 50.8381 263.422 51.2552 263.331 51.7094C263.239 52.1637 263.285 52.6346 263.463 53.0628C263.642 53.491 263.944 53.857 264.332 54.1145C264.72 54.372 265.176 54.5095 265.643 54.5094C266.267 54.51 266.865 54.2649 267.307 53.8279C267.749 53.3908 267.998 52.7976 268 52.1784ZM268 27.3864C268.002 26.9231 267.865 26.4698 267.607 26.0837C267.349 25.6976 266.982 25.3962 266.551 25.2177C266.12 25.0391 265.646 24.9915 265.188 25.0808C264.73 25.1701 264.309 25.3923 263.978 25.7192C263.648 26.0462 263.422 26.4632 263.331 26.9174C263.239 27.3717 263.285 27.8427 263.463 28.2709C263.642 28.699 263.944 29.065 264.332 29.3225C264.72 29.58 265.176 29.7175 265.643 29.7174C266.267 29.7186 266.866 29.4737 267.308 29.0365C267.75 28.5994 267.999 28.0058 268 27.3864ZM267.752 2.34752C267.753 1.88439 267.616 1.43129 267.357 1.04565C267.099 0.660011 266.731 0.359177 266.301 0.181149C265.87 0.00312042 265.396 -0.0441132 264.938 0.0455437C264.48 0.135201 264.059 0.357655 263.729 0.684742C263.399 1.01183 263.174 1.42884 263.082 1.88299C262.991 2.33714 263.037 2.808 263.216 3.23597C263.394 3.66394 263.696 4.02975 264.084 4.28712C264.472 4.54449 264.928 4.68186 265.395 4.68179C265.704 4.68235 266.01 4.6224 266.296 4.50536C266.582 4.38831 266.842 4.21648 267.061 3.99968C267.28 3.78288 267.453 3.52542 267.572 3.24192C267.691 2.95842 267.752 2.65449 267.752 2.34752Z" fill="#9E9E9E"/>
</svg>
