<svg width="290" height="13" viewBox="0 0 290 13" fill="none" xmlns="http://www.w3.org/2000/svg">
<path d="M266.844 1.53003C260.503 1.19003 254.161 0.940024 247.82 0.650024C245.728 0.550024 243.625 0.55 241.533 0.5L227.907 0.180054C225.371 0.120054 222.845 0.04 220.319 0C219.593 0 218.856 0 218.151 0H213.209H190.727C188.938 0 187.15 5.85951e-05 185.372 0.0600586L172.126 0.220032C167.139 0.280032 162.153 0.310044 157.177 0.420044L132.994 0.970032C128.322 1.08003 123.65 1.14006 118.989 1.31006L94.8702 2.19C90.48 2.35 86.079 2.48002 81.6889 2.71002L56.7573 3.99005C52.3238 4.22005 47.8687 4.39005 43.4352 4.74005L18.612 6.69L13.1921 7.11005C9.61492 7.39005 6.05946 7.83001 2.49316 8.20001L1.82109 8.28003C1.41067 8.39243 1.03776 8.59882 0.737108 8.88C0.266768 9.3198 0.00212258 9.91222 0 10.53C0.00263733 11.1448 0.26742 11.7339 0.737108 12.17C0.967198 12.3924 1.24524 12.5678 1.5533 12.6849C1.86136 12.802 2.1926 12.8582 2.52568 12.85C6.86161 12.41 11.1217 11.93 15.4251 11.59L27.4139 10.66L40.4867 9.66003C42.2428 9.53003 44.0097 9.35 45.7657 9.25L66.1555 8.25L78.8164 7.53003C80.5616 7.44003 82.3176 7.33002 84.0628 7.27002L104.268 6.55005L116.517 6.12006C117.894 6.12006 119.271 6.01004 120.636 5.98004L142.457 5.52002L154.641 5.26001C156.093 5.26001 157.535 5.19005 158.977 5.18005L181.48 4.96002C186.163 4.96002 190.835 4.88001 195.518 4.89001L219.42 4.94C220.992 4.94 222.552 5.00005 224.124 5.05005L237.316 5.40002L247.213 5.67004C249.554 5.73004 251.885 5.90001 254.226 6.01001C261.11 6.36001 267.993 6.71005 274.822 7.11005C276.578 7.21005 278.323 7.33001 280.069 7.45001C281.814 7.57001 283.819 7.69001 285.684 7.89001L286.551 8.04004C287.261 8.20511 288.012 8.11577 288.654 7.79004C289.265 7.45226 289.715 6.9124 289.911 6.28003C290.092 5.6359 289.994 4.95203 289.638 4.37335C289.282 3.79467 288.696 3.36669 288.003 3.18005C286.74 2.89385 285.453 2.70652 284.155 2.62006L281.499 2.37006C279.798 2.21006 278.085 2.13001 276.383 2.01001C273.25 1.82001 270.042 1.69003 266.844 1.53003Z" fill="#FFE551"/>
</svg>
