<svg width="40" height="40" viewBox="0 0 40 40" fill="none" xmlns="http://www.w3.org/2000/svg">
<path d="M4.85083 0C1.91772 0 0 2.01501 0 4.66345C0 7.25341 1.8606 9.32588 4.73828 9.32588H4.79394C7.78442 9.32588 9.64551 7.25341 9.64551 4.66345C9.5896 2.01501 7.78442 0 4.85083 0Z" fill="white"/>
<path d="M0.506836 13.0107H9.08154V39.9999H0.506836V13.0107Z" fill="white"/>
<path d="M30.1284 12.377C25.5027 12.377 22.4009 16.9244 22.4009 16.9244V13.0104H13.8259V39.9996H22.4004V24.9278C22.4004 24.1209 22.4563 23.3153 22.6829 22.7383C23.3027 21.1271 24.7134 19.458 27.0823 19.458C30.1851 19.458 31.426 21.933 31.426 25.5612V39.9996H40V24.5245C40 16.2346 35.7695 12.377 30.1284 12.377V12.377Z" fill="white"/>
</svg>
