<svg width="16" height="14" viewBox="0 0 16 14" fill="none" xmlns="http://www.w3.org/2000/svg">
<path d="M15.2281 6.35181H0.643446C0.288066 6.35181 0 6.64217 0 6.99996C0 7.35775 0.288035 7.64811 0.643446 7.64811H15.2281C15.5835 7.64811 15.8715 7.35797 15.8715 6.99996C15.8715 6.64195 15.5835 6.35181 15.2281 6.35181Z" fill="#02CFCF"/>
<path d="M15.8116 6.54158L9.50607 0.189747C9.2547 -0.0632489 8.84763 -0.0632489 8.59625 0.189747C8.34487 0.442963 8.34487 0.853447 8.59625 1.10644L14.4468 7.00001L8.59625 12.8936C8.34487 13.1466 8.34487 13.5571 8.59625 13.8101C8.72194 13.9367 8.88644 14 9.05116 14C9.21588 14 9.38038 13.9367 9.50607 13.8101L15.8116 7.45828C16.0629 7.20506 16.0629 6.79455 15.8116 6.54158Z" fill="#02CFCF"/>
</svg>
