<svg width="50" height="40" viewBox="0 0 50 40" fill="none" xmlns="http://www.w3.org/2000/svg">
<path d="M50 4.73538C48.1406 5.53846 46.1594 6.07077 44.0938 6.32923C46.2188 5.08 47.8406 3.11692 48.6031 0.750769C46.6219 1.91385 44.4344 2.73538 42.1031 3.19385C40.2219 1.22154 37.5406 0 34.6156 0C28.9406 0 24.3719 4.53539 24.3719 10.0954C24.3719 10.8954 24.4406 11.6646 24.6094 12.3969C16.0875 11.9877 8.54688 7.96615 3.48125 1.84C2.59687 3.35077 2.07812 5.08 2.07812 6.94154C2.07812 10.4369 3.90625 13.5354 6.63125 15.3292C4.98437 15.2985 3.36875 14.8277 2 14.0862C2 14.1169 2 14.1569 2 14.1969C2 19.1015 5.55312 23.1754 10.2125 24.1138C9.37812 24.3385 8.46875 24.4462 7.525 24.4462C6.86875 24.4462 6.20625 24.4092 5.58437 24.2738C6.9125 28.2708 10.6813 31.2092 15.1625 31.3046C11.675 33.9908 7.24688 35.6092 2.45312 35.6092C1.6125 35.6092 0.80625 35.5723 0 35.4708C4.54062 38.3538 9.92188 40 15.725 40C34.5875 40 44.9 24.6154 44.9 11.28C44.9 10.8338 44.8844 10.4031 44.8625 9.97538C46.8969 8.55385 48.6062 6.77846 50 4.73538Z" fill="white"/>
</svg>
