<svg width="55" height="266" viewBox="0 0 55 266" fill="none" xmlns="http://www.w3.org/2000/svg">
<path opacity="0.62" fill-rule="evenodd" clip-rule="evenodd" d="M52.1784 261.075C51.7153 261.073 51.2622 261.209 50.8763 261.465C50.4905 261.721 50.1895 262.086 50.0112 262.514C49.8329 262.941 49.7855 263.412 49.875 263.866C49.9644 264.32 50.1868 264.738 50.5137 265.066C50.8407 265.394 51.2576 265.617 51.7117 265.708C52.1659 265.798 52.6367 265.752 53.0646 265.575C53.4925 265.398 53.8582 265.098 54.1154 264.713C54.3726 264.328 54.5098 263.875 54.5094 263.412C54.5094 262.794 54.264 262.2 53.8271 261.762C53.3901 261.324 52.7972 261.077 52.1784 261.075ZM27.3864 261.075C26.9233 261.073 26.4702 261.209 26.0843 261.465C25.6985 261.721 25.3975 262.086 25.2192 262.514C25.0409 262.941 24.9935 263.412 25.0829 263.866C25.1724 264.32 25.3948 264.738 25.7217 265.066C26.0487 265.394 26.4656 265.617 26.9197 265.708C27.3739 265.798 27.8447 265.752 28.2726 265.575C28.7005 265.398 29.0662 265.098 29.3234 264.713C29.5806 264.328 29.7178 263.875 29.7174 263.412C29.7182 262.793 29.4731 262.199 29.036 261.761C28.5988 261.323 28.0054 261.076 27.3864 261.075ZM2.34752 261.319C1.88425 261.317 1.431 261.454 1.04517 261.71C0.659344 261.966 0.358292 262.331 0.180103 262.759C0.00191498 263.187 -0.0454025 263.657 0.044178 264.112C0.133759 264.566 0.356171 264.984 0.683292 265.312C1.01041 265.64 1.42751 265.864 1.88178 265.955C2.33606 266.045 2.80704 265.999 3.23517 265.822C3.6633 265.645 4.02936 265.345 4.28688 264.96C4.54439 264.575 4.68179 264.123 4.68179 263.659C4.68222 263.352 4.62219 263.048 4.50512 262.765C4.38804 262.481 4.2162 262.223 3.99944 262.006C3.78267 261.788 3.52528 261.616 3.24184 261.498C2.95839 261.38 2.6545 261.319 2.34752 261.319ZM52.422 232.256C51.9587 232.255 51.5055 232.391 51.1197 232.647C50.7338 232.904 50.4328 233.269 50.2546 233.697C50.0764 234.124 50.0291 234.595 50.1187 235.049C50.2082 235.504 50.4307 235.922 50.7579 236.25C51.085 236.578 51.5021 236.801 51.9564 236.892C52.4106 236.983 52.8816 236.937 53.3097 236.76C53.7379 236.583 54.1039 236.283 54.3614 235.898C54.6189 235.513 54.7564 235.06 54.7564 234.597C54.7568 234.29 54.6968 233.986 54.5797 233.702C54.4626 233.418 54.2908 233.16 54.074 232.943C53.8572 232.726 53.5998 232.553 53.3163 232.435C53.0329 232.318 52.729 232.257 52.422 232.256ZM27.6301 232.256C27.1668 232.255 26.7136 232.391 26.3277 232.647C25.9419 232.904 25.6408 233.269 25.4626 233.697C25.2844 234.124 25.2372 234.595 25.3267 235.049C25.4163 235.504 25.6387 235.922 25.9659 236.25C26.293 236.578 26.7101 236.801 27.1643 236.892C27.6186 236.983 28.0896 236.937 28.5177 236.76C28.9459 236.583 29.3118 236.283 29.5694 235.898C29.8269 235.513 29.9644 235.06 29.9644 234.597C29.9648 234.29 29.9048 233.986 29.7877 233.702C29.6706 233.418 29.4988 233.16 29.282 232.943C29.0652 232.726 28.8078 232.553 28.5243 232.435C28.2409 232.318 27.9371 232.257 27.6301 232.256ZM2.59444 232.503C2.13104 232.501 1.67748 232.637 1.29122 232.893C0.904961 233.149 0.603317 233.514 0.424622 233.941C0.24593 234.369 0.198208 234.84 0.287415 235.294C0.376621 235.749 0.598816 236.167 0.925804 236.495C1.25279 236.824 1.66985 237.048 2.12421 237.139C2.57858 237.23 3.04976 237.184 3.47808 237.007C3.9064 236.83 4.27261 236.53 4.53028 236.145C4.78794 235.76 4.92542 235.307 4.92543 234.844C4.92616 234.537 4.86648 234.233 4.74971 233.949C4.63295 233.666 4.4614 233.408 4.24492 233.191C4.02845 232.973 3.77133 232.801 3.48813 232.683C3.20492 232.565 2.90124 232.504 2.59444 232.503ZM52.1784 203.441C51.7154 203.439 51.2624 203.575 50.8767 203.831C50.4909 204.087 50.1899 204.451 50.0115 204.878C49.8332 205.306 49.7855 205.776 49.8747 206.23C49.9639 206.684 50.1859 207.102 50.5125 207.43C50.8392 207.758 51.2559 207.982 51.7097 208.073C52.1636 208.164 52.6344 208.118 53.0623 207.942C53.4903 207.765 53.8562 207.466 54.1138 207.081C54.3714 206.697 54.5091 206.244 54.5094 205.781C54.5103 205.162 54.2653 204.568 53.8283 204.129C53.3912 203.69 52.7978 203.442 52.1784 203.441ZM27.3864 203.441C26.9234 203.439 26.4705 203.575 26.0847 203.831C25.699 204.087 25.3979 204.451 25.2195 204.878C25.0412 205.306 24.9935 205.776 25.0827 206.23C25.1719 206.684 25.3939 207.102 25.7205 207.43C26.0472 207.758 26.4639 207.982 26.9177 208.073C27.3716 208.164 27.8424 208.118 28.2703 207.942C28.6983 207.765 29.0642 207.466 29.3218 207.081C29.5794 206.697 29.7171 206.244 29.7174 205.781C29.7182 205.475 29.6585 205.171 29.5417 204.887C29.4249 204.603 29.2534 204.345 29.0369 204.128C28.8204 203.911 28.5632 203.738 28.28 203.62C27.9968 203.502 27.6932 203.441 27.3864 203.441ZM2.34752 203.688C1.88471 203.687 1.432 203.823 1.0467 204.079C0.661396 204.336 0.360775 204.7 0.182919 205.128C0.00505829 205.555 -0.0420952 206.025 0.0474777 206.479C0.137047 206.933 0.359314 207.35 0.686104 207.678C1.01289 208.006 1.42959 208.229 1.88339 208.32C2.33719 208.411 2.80772 208.365 3.23549 208.188C3.66325 208.012 4.02893 207.712 4.2864 207.328C4.54385 206.943 4.68147 206.491 4.68179 206.028C4.68253 205.721 4.62273 205.417 4.50576 205.133C4.38879 204.849 4.21698 204.591 4.00016 204.374C3.78334 204.156 3.52575 203.984 3.24216 203.866C2.95858 203.748 2.65458 203.688 2.34752 203.688ZM52.1784 173.637C51.715 173.635 51.2614 173.771 50.8751 174.027C50.4889 174.283 50.1873 174.648 50.0086 175.075C49.8299 175.503 49.7822 175.974 49.8714 176.429C49.9606 176.883 50.1827 177.301 50.5097 177.63C50.8367 177.958 51.2539 178.182 51.7082 178.273C52.1626 178.364 52.6338 178.318 53.0621 178.142C53.4904 177.965 53.8565 177.665 54.1142 177.28C54.3719 176.894 54.5094 176.441 54.5094 175.978C54.5096 175.359 54.2644 174.765 53.8275 174.326C53.3906 173.888 52.7976 173.64 52.1784 173.637ZM27.3864 173.637C26.923 173.635 26.4695 173.771 26.0832 174.027C25.697 174.283 25.3953 174.648 25.2166 175.075C25.0379 175.503 24.9902 175.974 25.0794 176.429C25.1686 176.883 25.3907 177.301 25.7177 177.63C26.0447 177.958 26.4619 178.182 26.9162 178.273C27.3706 178.364 27.8418 178.318 28.2701 178.142C28.6984 177.965 29.0645 177.665 29.3222 177.28C29.5799 176.894 29.7174 176.441 29.7174 175.978C29.7183 175.359 29.4733 174.764 29.0363 174.326C28.5992 173.887 28.0058 173.639 27.3864 173.637ZM2.34752 173.884C1.88425 173.883 1.431 174.019 1.04517 174.276C0.659344 174.532 0.358292 174.897 0.180103 175.325C0.00191498 175.752 -0.0454025 176.223 0.044178 176.678C0.133759 177.132 0.356171 177.55 0.683292 177.878C1.01041 178.206 1.42751 178.429 1.88178 178.52C2.33606 178.611 2.80704 178.565 3.23517 178.388C3.6633 178.211 4.02936 177.911 4.28688 177.526C4.54439 177.141 4.68179 176.688 4.68179 176.225C4.68253 175.918 4.62273 175.614 4.50576 175.33C4.38879 175.046 4.21698 174.788 4.00016 174.571C3.78334 174.353 3.52575 174.181 3.24216 174.063C2.95858 173.945 2.65458 173.884 2.34752 173.884ZM52.1784 144.822C51.715 144.82 51.2614 144.956 50.8751 145.212C50.4889 145.468 50.1873 145.832 50.0086 146.26C49.8299 146.687 49.7822 147.158 49.8714 147.613C49.9606 148.068 50.1827 148.486 50.5097 148.814C50.8367 149.142 51.2539 149.366 51.7082 149.457C52.1626 149.549 52.6338 149.503 53.0621 149.326C53.4904 149.149 53.8565 148.849 54.1142 148.464C54.3719 148.079 54.5094 147.626 54.5094 147.163C54.5103 146.543 54.2653 145.949 53.8283 145.51C53.3912 145.071 52.7978 144.824 52.1784 144.822ZM27.3864 144.822C26.923 144.82 26.4695 144.956 26.0832 145.212C25.697 145.468 25.3953 145.832 25.2166 146.26C25.0379 146.687 24.9902 147.158 25.0794 147.613C25.1686 148.068 25.3907 148.486 25.7177 148.814C26.0447 149.142 26.4619 149.366 26.9162 149.457C27.3706 149.549 27.8418 149.503 28.2701 149.326C28.6984 149.149 29.0645 148.849 29.3222 148.464C29.5799 148.079 29.7174 147.626 29.7174 147.163C29.7182 146.856 29.6585 146.552 29.5417 146.268C29.4249 145.985 29.2534 145.727 29.0369 145.509C28.8204 145.292 28.5632 145.119 28.28 145.001C27.9968 144.883 27.6932 144.822 27.3864 144.822ZM2.34752 145.069C1.88471 145.068 1.432 145.204 1.0467 145.46C0.661396 145.717 0.360775 146.082 0.182919 146.509C0.00505829 146.936 -0.0420952 147.406 0.0474777 147.86C0.137047 148.314 0.359314 148.732 0.686104 149.059C1.01289 149.387 1.42959 149.61 1.88339 149.701C2.33719 149.792 2.80772 149.746 3.23549 149.57C3.66325 149.393 4.02893 149.094 4.2864 148.709C4.54385 148.324 4.68147 147.872 4.68179 147.409C4.68253 147.102 4.62273 146.798 4.50576 146.514C4.38879 146.23 4.21698 145.972 4.00016 145.755C3.78334 145.538 3.52575 145.365 3.24216 145.247C2.95858 145.13 2.65458 145.069 2.34752 145.069ZM52.422 116.006C51.9591 116.005 51.5062 116.142 51.1209 116.398C50.7355 116.655 50.4349 117.02 50.2572 117.447C50.0794 117.875 50.0324 118.345 50.1223 118.799C50.2121 119.253 50.4347 119.671 50.7618 119.998C51.0889 120.326 51.5059 120.549 51.9599 120.639C52.4139 120.73 52.8846 120.683 53.3123 120.506C53.74 120.329 54.1055 120.029 54.3626 119.644C54.6196 119.259 54.7567 118.807 54.7564 118.344C54.7568 118.037 54.6967 117.733 54.5795 117.45C54.4624 117.166 54.2905 116.908 54.0737 116.691C53.8569 116.474 53.5995 116.302 53.3161 116.184C53.0327 116.067 52.7288 116.006 52.422 116.006ZM27.6301 116.006C27.1671 116.005 26.7142 116.142 26.3289 116.398C25.9435 116.655 25.6429 117.02 25.4652 117.447C25.2874 117.875 25.2404 118.345 25.3303 118.799C25.4201 119.253 25.6427 119.671 25.9698 119.998C26.2969 120.326 26.7139 120.549 27.1679 120.639C27.6219 120.73 28.0926 120.683 28.5203 120.506C28.948 120.329 29.3135 120.029 29.5706 119.644C29.8276 119.259 29.9647 118.807 29.9644 118.344C29.9647 118.037 29.9047 117.733 29.7875 117.45C29.6704 117.166 29.4986 116.908 29.2818 116.691C29.065 116.474 28.8075 116.302 28.5241 116.184C28.2407 116.067 27.9369 116.006 27.6301 116.006ZM2.59444 116.253C2.13137 116.252 1.67815 116.387 1.29234 116.643C0.906536 116.9 0.605465 117.264 0.427197 117.692C0.248928 118.119 0.201488 118.59 0.290951 119.044C0.380413 119.498 0.602753 119.916 0.929741 120.244C1.25673 120.572 1.67372 120.795 2.12783 120.886C2.58194 120.977 3.05276 120.931 3.48065 120.753C3.90855 120.576 4.27427 120.276 4.53148 119.891C4.78869 119.506 4.92575 119.054 4.92543 118.591C4.92622 117.972 4.68109 117.378 4.24395 116.939C3.80682 116.501 3.21352 116.254 2.59444 116.253ZM52.6689 86.9438C52.2059 86.9422 51.7527 87.078 51.3669 87.3341C50.9811 87.5902 50.68 87.9551 50.5018 88.3824C50.3235 88.8098 50.2761 89.2804 50.3655 89.7347C50.455 90.189 50.6773 90.6065 51.0043 90.9344C51.3313 91.2623 51.7482 91.4858 52.2023 91.5765C52.6564 91.6673 53.1272 91.6212 53.5551 91.4441C53.983 91.2671 54.3488 90.967 54.606 90.582C54.8632 90.1969 55.0003 89.7442 55 89.2812C55.0008 88.6622 54.7557 88.0682 54.3185 87.6299C53.8814 87.1916 53.288 86.9448 52.6689 86.9438ZM27.877 86.9438C27.4139 86.9422 26.9607 87.078 26.5749 87.3341C26.1891 87.5902 25.888 87.9551 25.7098 88.3824C25.5315 88.8098 25.4841 89.2804 25.5735 89.7347C25.663 90.189 25.8853 90.6065 26.2123 90.9344C26.5393 91.2623 26.9562 91.4858 27.4103 91.5765C27.8644 91.6673 28.3352 91.6212 28.7631 91.4441C29.191 91.2671 29.5568 90.967 29.814 90.582C30.0712 90.1969 30.2083 89.7442 30.208 89.2812C30.2088 88.6622 29.9637 88.0682 29.5265 87.6299C29.0894 87.1916 28.4961 86.9448 27.877 86.9438ZM2.83808 87.1874C2.37482 87.1861 1.92157 87.3223 1.53574 87.5787C1.14991 87.8351 0.848862 88.2002 0.670673 88.6278C0.492485 89.0554 0.445168 89.5262 0.534744 89.9807C0.624325 90.4352 0.846741 90.8529 1.17386 91.1809C1.50098 91.5089 1.91808 91.7325 2.37235 91.8233C2.82663 91.9142 3.29769 91.8682 3.72581 91.6912C4.15395 91.5143 4.51993 91.2143 4.77745 90.8292C5.03496 90.4441 5.17236 89.9913 5.17236 89.5281C5.17279 89.2211 5.11276 88.9171 4.99568 88.6334C4.8786 88.3496 4.70685 88.0917 4.49008 87.8744C4.27332 87.657 4.01585 87.4845 3.7324 87.3666C3.44896 87.2488 3.14507 87.1879 2.83808 87.1874ZM52.1784 57.8794C51.7151 57.8776 51.2618 58.0132 50.8757 58.2693C50.4896 58.5253 50.1882 58.8901 50.0097 59.3175C49.8311 59.7449 49.7835 60.2157 49.8728 60.6702C49.962 61.1247 50.1842 61.5425 50.5111 61.8707C50.838 62.1989 51.255 62.4227 51.7092 62.5137C52.1634 62.6048 52.6345 62.559 53.0626 62.3821C53.4908 62.2053 53.8568 61.9054 54.1144 61.5204C54.3719 61.1354 54.5094 60.6826 54.5094 60.2194C54.5101 59.6002 54.2651 59.006 53.828 58.5672C53.391 58.1285 52.7977 57.8811 52.1784 57.8794ZM27.3864 57.8794C26.9231 57.8776 26.4698 58.0132 26.0837 58.2693C25.6976 58.5253 25.3963 58.8901 25.2178 59.3175C25.0392 59.7449 24.9915 60.2157 25.0808 60.6702C25.17 61.1247 25.3922 61.5425 25.7191 61.8707C26.046 62.1989 26.463 62.4227 26.9173 62.5137C27.3715 62.6048 27.8425 62.559 28.2706 62.3821C28.6988 62.2053 29.0648 61.9054 29.3224 61.5204C29.5799 61.1354 29.7174 60.6826 29.7174 60.2194C29.718 59.9127 29.6582 59.6089 29.5414 59.3253C29.4246 59.0417 29.2531 58.7839 29.0366 58.5667C28.8201 58.3494 28.563 58.1768 28.2799 58.0589C27.9967 57.941 27.6931 57.88 27.3864 57.8794ZM2.34752 58.1256C1.8844 58.1245 1.43137 58.2607 1.04573 58.5171C0.660099 58.7735 0.359184 59.1386 0.181149 59.566C0.00310898 59.9935 -0.0440826 60.4642 0.0455437 60.9185C0.135174 61.3728 0.357605 61.7903 0.684658 62.1182C1.01171 62.446 1.4287 62.6695 1.88283 62.7602C2.33696 62.851 2.80776 62.805 3.23573 62.6281C3.6637 62.4511 4.02954 62.1512 4.28696 61.7663C4.54437 61.3813 4.68179 60.9287 4.68179 60.4656C4.68235 60.1587 4.6224 59.8546 4.50536 59.5709C4.38832 59.2871 4.21655 59.0292 3.99975 58.8118C3.78296 58.5945 3.52542 58.422 3.24192 58.3043C2.95841 58.1866 2.6545 58.1258 2.34752 58.1256ZM52.1784 28.8166C51.7151 28.8148 51.2618 28.9504 50.8757 29.2065C50.4896 29.4625 50.1882 29.8273 50.0097 30.2548C49.8311 30.6822 49.7835 31.153 49.8728 31.6075C49.9621 32.0621 50.1842 32.4799 50.5112 32.808C50.8381 33.1362 51.2552 33.36 51.7094 33.451C52.1637 33.542 52.6346 33.4961 53.0628 33.3192C53.491 33.1423 53.857 32.8424 54.1145 32.4573C54.372 32.0723 54.5095 31.6195 54.5094 31.1563C54.51 30.5371 54.2649 29.943 53.8279 29.5043C53.3908 29.0657 52.7976 28.8183 52.1784 28.8166ZM27.3864 28.8166C26.9231 28.8148 26.4698 28.9504 26.0837 29.2065C25.6976 29.4625 25.3962 29.8273 25.2177 30.2548C25.0391 30.6822 24.9915 31.153 25.0808 31.6075C25.1701 32.0621 25.3923 32.4799 25.7192 32.808C26.0462 33.1362 26.4632 33.36 26.9174 33.451C27.3717 33.542 27.8427 33.4961 28.2709 33.3192C28.699 33.1423 29.065 32.8424 29.3225 32.4573C29.58 32.0723 29.7175 31.6195 29.7174 31.1563C29.7186 30.5369 29.4737 29.9425 29.0365 29.5037C28.5994 29.065 28.0058 28.8178 27.3864 28.8166ZM2.34752 29.0628C1.88439 29.0616 1.43129 29.1979 1.04565 29.4543C0.660011 29.7107 0.359177 30.0758 0.181149 30.5033C0.00312042 30.9308 -0.0441093 31.4015 0.0455437 31.8558C0.135201 32.3101 0.357655 32.7276 0.684742 33.0555C1.01183 33.3833 1.42884 33.6067 1.88299 33.6975C2.33714 33.7882 2.808 33.7422 3.23597 33.5652C3.66393 33.3882 4.02975 33.0882 4.28712 32.7032C4.54449 32.3183 4.68185 31.8656 4.68179 31.4025C4.68235 31.0956 4.6224 30.7915 4.50536 30.5078C4.38831 30.224 4.21648 29.9661 3.99968 29.7488C3.78288 29.5315 3.52542 29.3591 3.24192 29.2414C2.95842 29.1237 2.65449 29.063 2.34752 29.0628ZM52.1784 1.81646e-05C51.7151 -0.00180654 51.2618 0.133881 50.8757 0.389908C50.4896 0.645934 50.1882 1.01078 50.0097 1.43821C49.8311 1.86565 49.7835 2.33646 49.8728 2.79099C49.9621 3.24552 50.1842 3.66334 50.5112 3.9915C50.8381 4.31967 51.2552 4.54342 51.7094 4.63443C52.1637 4.72543 52.6346 4.67958 53.0628 4.5027C53.491 4.32581 53.857 4.02583 54.1145 3.64078C54.372 3.25572 54.5095 2.80291 54.5094 2.3397C54.51 1.72053 54.2649 1.1264 53.8279 0.68775C53.3908 0.249098 52.7976 0.001762 52.1784 1.81646e-05ZM27.3864 1.81646e-05C26.9231 -0.00180654 26.4698 0.133881 26.0837 0.389908C25.6976 0.645934 25.3962 1.01078 25.2177 1.43821C25.0391 1.86565 24.9915 2.33646 25.0808 2.79099C25.1701 3.24552 25.3923 3.66334 25.7192 3.9915C26.0462 4.31967 26.4632 4.54342 26.9174 4.63443C27.3717 4.72543 27.8427 4.67958 28.2709 4.5027C28.699 4.32581 29.065 4.02583 29.3225 3.64078C29.58 3.25572 29.7175 2.80291 29.7174 2.3397C29.7186 1.72037 29.4737 1.12595 29.0365 0.687187C28.5994 0.248421 28.0058 0.00123937 27.3864 1.81646e-05ZM2.34752 0.246261C1.88439 0.245088 1.43129 0.381334 1.04565 0.637758C0.660011 0.894182 0.359177 1.25925 0.181149 1.68675C0.00312042 2.11424 -0.0441093 2.58495 0.0455437 3.03926C0.135201 3.49358 0.357655 3.9111 0.684742 4.23893C1.01183 4.56677 1.42884 4.79018 1.88299 4.88091C2.33714 4.97164 2.808 4.92562 3.23597 4.74864C3.66393 4.57165 4.02975 4.27168 4.28712 3.8867C4.54449 3.50171 4.68185 3.04902 4.68179 2.58594C4.68235 2.279 4.6224 1.97496 4.50536 1.69121C4.38831 1.40746 4.21648 1.14956 3.99968 0.932265C3.78288 0.714967 3.52542 0.54254 3.24192 0.42483C2.95842 0.30712 2.65449 0.246434 2.34752 0.246261Z" fill="#9E9E9E"/>
</svg>
